<svg width="256" height="256" viewBox="0 0 256 256" xmlns="http://www.w3.org/2000/svg" role="img" aria-label="Synology Security Observability">
  <defs>
    <linearGradient id="g" x1="0" y1="0" x2="1" y2="1">
      <stop offset="0%" stop-color="#2563eb"/>
      <stop offset="100%" stop-color="#0ea5e9"/>
    </linearGradient>
  </defs>
  <rect x="20" y="20" width="216" height="216" rx="28" fill="#0f172a"/>
  <path d="M128 46l62 24v48c0 43-25 77-62 92-37-15-62-49-62-92V70l62-24z" fill="url(#g)"/>
  <path d="M128 78a34 34 0 0 1 34 34v14h8a10 10 0 0 1 10 10v36a10 10 0 0 1-10 10H86a10 10 0 0 1-10-10v-36a10 10 0 0 1 10-10h8v-14a34 34 0 0 1 34-34zm0 16a18 18 0 0 0-18 18v14h36v-14a18 18 0 0 0-18-18z" fill="#e2e8f0"/>
  <circle cx="196" cy="196" r="26" fill="#111827"/>
  <path d="M196 179v17l12 7" stroke="#22c55e" stroke-width="6" stroke-linecap="round" stroke-linejoin="round" fill="none"/>
</svg>
